<mxfile host="app.diagrams.net" modified="2023-12-21T13:22:00.823Z" agent="Mozilla/5.0 (X11; Ubuntu; Linux x86_64; rv:104.0) Gecko/20100101 Firefox/104.0" version="22.1.11" etag="2_tAm_ZGu-bO1lwVDHG5" type="github">
  <diagram name="Page-1" id="u5YkhigBfSJe9aOL3ie4">
    <mxGraphModel>
      <root>
        <mxCell id="0" />
        <mxCell id="1" parent="0" />
      </root>
    </mxGraphModel>
  </diagram>
</mxfile>
